<svg width="24" height="24" viewBox="0 0 24 24" fill="none" xmlns="http://www.w3.org/2000/svg">
<path d="M8.02207 6.86957L9.57163 4.58826C9.70507 4.41568 9.87408 4.27383 10.0672 4.17233C10.2603 4.07083 10.4729 4.01205 10.6908 4H13.9621C14.1799 4.01205 14.3926 4.07083 14.5857 4.17233C14.7788 4.27383 14.9478 4.41568 15.0812 4.58826L16.229 6.26696C16.3611 6.44218 16.5294 6.58676 16.7226 6.69078C16.9158 6.7948 17.1292 6.85579 17.3482 6.86957H19.5003C20.0964 6.9272 20.6489 7.20727 21.0477 7.65397C21.4466 8.10068 21.6625 8.68123 21.6525 9.28V18.3478C21.6525 18.9186 21.4258 19.466 21.0221 19.8696C20.6185 20.2733 20.0711 20.5 19.5003 20.5H5.15251C4.58171 20.5 4.0343 20.2733 3.63069 19.8696C3.22708 19.466 3.00033 18.9186 3.00033 18.3478V9.28C2.99034 8.68123 3.20627 8.10068 3.60511 7.65397C4.00395 7.20727 4.55644 6.9272 5.15251 6.86957H8.02207Z" stroke="#2A6059" stroke-width="1.7" stroke-linecap="round" stroke-linejoin="round"/>
<path d="M12.3267 16.9129C14.3077 16.9129 15.9137 15.307 15.9137 13.326C15.9137 11.3449 14.3077 9.73901 12.3267 9.73901C10.3457 9.73901 8.73975 11.3449 8.73975 13.326C8.73975 15.307 10.3457 16.9129 12.3267 16.9129Z" stroke="#2A6059" stroke-width="1.7" stroke-linecap="round" stroke-linejoin="round"/>
</svg>
