<svg width="20" height="20" viewBox="0 0 20 20" fill="none" xmlns="http://www.w3.org/2000/svg">
<path fill-rule="evenodd" clip-rule="evenodd" d="M13.3488 8.89881L11.1029 6.65298L12.7263 5.02881L14.9713 7.27381L13.3488 8.89881ZM7.56625 14.6871L5.08542 14.913L5.30542 12.4496L9.98625 7.76881L12.2329 10.0155L7.56625 14.6871ZM16.1696 6.11465L16.1688 6.11381L13.8871 3.83215C13.2696 3.21631 12.2088 3.18715 11.6238 3.77465L4.12709 11.2713C3.85542 11.5421 3.68709 11.9021 3.65209 12.283L3.33625 15.758C3.31459 16.0038 3.40209 16.2471 3.57709 16.4221C3.73459 16.5796 3.94709 16.6663 4.16625 16.6663C4.19209 16.6663 4.21709 16.6655 4.24209 16.663L7.71709 16.3471C8.09876 16.3121 8.45792 16.1446 8.72875 15.8738L16.2263 8.37631C16.8329 7.76798 16.8071 6.75298 16.1696 6.11465Z" fill="#567DF4"/>
<path d="M13.3488 8.89881L13.278 8.96952L13.3488 9.04029L13.4195 8.96947L13.3488 8.89881ZM11.1029 6.65298L11.0322 6.58229L10.9615 6.653L11.0322 6.72369L11.1029 6.65298ZM12.7263 5.02881L12.797 4.9581L12.7262 4.88737L12.6555 4.95812L12.7263 5.02881ZM14.9713 7.27381L15.042 7.34447L15.1126 7.27376L15.042 7.2031L14.9713 7.27381ZM7.56625 14.6871L7.57532 14.7867L7.6114 14.7835L7.637 14.7578L7.56625 14.6871ZM5.08542 14.913L4.98582 14.9041L4.97516 15.0234L5.09449 15.0126L5.08542 14.913ZM5.30542 12.4496L5.23471 12.3789L5.20905 12.4046L5.20582 12.4408L5.30542 12.4496ZM9.98625 7.76881L10.057 7.6981L9.98625 7.62739L9.91554 7.6981L9.98625 7.76881ZM12.2329 10.0155L12.3037 10.0862L12.3743 10.0154L12.3036 9.94477L12.2329 10.0155ZM16.1688 6.11381L16.098 6.18452L16.0981 6.18454L16.1688 6.11381ZM13.8871 3.83215L13.9578 3.76144L13.9577 3.76134L13.8871 3.83215ZM11.6238 3.77465L11.6945 3.84536L11.6946 3.84521L11.6238 3.77465ZM4.12709 11.2713L4.19769 11.3421L4.1978 11.342L4.12709 11.2713ZM3.65209 12.283L3.55251 12.2738L3.5525 12.2739L3.65209 12.283ZM3.33625 15.758L3.23666 15.7489L3.23664 15.7492L3.33625 15.758ZM3.57709 16.4221L3.6478 16.3514L3.57709 16.4221ZM4.24209 16.663L4.23304 16.5634L4.23214 16.5635L4.24209 16.663ZM7.71709 16.3471L7.72614 16.4467L7.72622 16.4467L7.71709 16.3471ZM8.72875 15.8738L8.65804 15.8031L8.72875 15.8738ZM16.2263 8.37631L16.297 8.44702L16.2971 8.44693L16.2263 8.37631ZM13.4195 8.8281L11.1736 6.58227L11.0322 6.72369L13.278 8.96952L13.4195 8.8281ZM11.1737 6.72367L12.797 5.09951L12.6555 4.95812L11.0322 6.58229L11.1737 6.72367ZM12.6555 5.09952L14.9005 7.34452L15.042 7.2031L12.797 4.9581L12.6555 5.09952ZM14.9005 7.20316L13.278 8.82816L13.4195 8.96947L15.042 7.34447L14.9005 7.20316ZM7.55719 14.5876L5.07636 14.8134L5.09449 15.0126L7.57532 14.7867L7.55719 14.5876ZM5.18502 14.9219L5.40502 12.4585L5.20582 12.4408L4.98582 14.9041L5.18502 14.9219ZM5.37613 12.5204L10.057 7.83952L9.91554 7.6981L5.23471 12.3789L5.37613 12.5204ZM9.91554 7.83952L12.1622 10.0862L12.3036 9.94477L10.057 7.6981L9.91554 7.83952ZM12.1622 9.94481L7.49551 14.6165L7.637 14.7578L12.3037 10.0862L12.1622 9.94481ZM16.2403 6.04392L16.2394 6.04309L16.0981 6.18454L16.0989 6.18537L16.2403 6.04392ZM16.2395 6.0431L13.9578 3.76144L13.8164 3.90286L16.098 6.18452L16.2395 6.0431ZM13.9577 3.76134C13.3048 3.11024 12.1805 3.07377 11.5529 3.70409L11.6946 3.84521C12.237 3.30053 13.2343 3.32239 13.8165 3.90295L13.9577 3.76134ZM11.553 3.70394L4.05638 11.2006L4.1978 11.342L11.6945 3.84536L11.553 3.70394ZM4.05649 11.2005C3.76816 11.4879 3.58964 11.8698 3.55251 12.2738L3.75167 12.2921C3.78454 11.9345 3.94268 11.5964 4.19769 11.3421L4.05649 11.2005ZM3.5525 12.2739L3.23666 15.7489L3.43584 15.767L3.75168 12.292L3.5525 12.2739ZM3.23664 15.7492C3.2124 16.0243 3.31029 16.2968 3.50638 16.4929L3.6478 16.3514C3.49388 16.1975 3.41678 15.9834 3.43587 15.7668L3.23664 15.7492ZM3.50638 16.4929C3.68276 16.6692 3.92076 16.7663 4.16625 16.7663V16.5663C3.97342 16.5663 3.78641 16.49 3.6478 16.3514L3.50638 16.4929ZM4.16625 16.7663C4.19417 16.7663 4.22269 16.7654 4.25204 16.7625L4.23214 16.5635C4.21148 16.5655 4.19 16.5663 4.16625 16.5663V16.7663ZM4.25114 16.7626L7.72614 16.4467L7.70804 16.2476L4.23304 16.5634L4.25114 16.7626ZM7.72622 16.4467C8.131 16.4096 8.512 16.232 8.79947 15.9445L8.65804 15.8031C8.40385 16.0573 8.06651 16.2147 7.70796 16.2476L7.72622 16.4467ZM8.79947 15.9445L16.297 8.44702L16.1555 8.3056L8.65804 15.8031L8.79947 15.9445ZM16.2971 8.44693C16.9459 7.79628 16.9135 6.71799 16.2403 6.04398L16.0988 6.18531C16.7007 6.78797 16.7199 7.73969 16.1554 8.3057L16.2971 8.44693Z" fill="white"/>
</svg>
