<svg width="27" height="23" viewBox="0 0 27 23" fill="none" xmlns="http://www.w3.org/2000/svg">
<path fill-rule="evenodd" clip-rule="evenodd" d="M14.7519 15.2638C15.4494 15.5031 16.005 16.0869 16.2375 16.8269L16.2625 16.9019C16.5288 17.6869 16.4206 18.5319 15.9744 19.1656C15.8931 19.2806 15.9113 19.4181 15.9969 19.4831L17.2919 20.4669C17.3375 20.5013 17.3819 20.5013 17.4094 20.4981C17.4406 20.4931 17.4863 20.4763 17.5231 20.4237L17.6675 20.2188C18.0981 19.6081 18.7919 19.2312 19.5244 19.21C20.3469 19.1931 21.0856 19.57 21.5456 20.2344L21.6194 20.3413C21.6563 20.3938 21.7013 20.4113 21.7331 20.4163C21.7606 20.4219 21.8056 20.42 21.8506 20.385L23.1388 19.4131C23.2288 19.3456 23.2488 19.2013 23.1819 19.1044L23.0194 18.87C22.6006 18.265 22.4763 17.48 22.6869 16.7706C22.9156 15.9981 23.4975 15.3869 24.2444 15.1369L24.37 15.0944C24.4706 15.0613 24.525 14.9363 24.4894 14.8212L23.9975 13.2456C23.9744 13.1719 23.9269 13.1388 23.9006 13.125C23.8631 13.1056 23.8225 13.1025 23.7838 13.1156L23.5713 13.1862C22.8444 13.4281 22.0425 13.2969 21.4269 12.8338L21.3594 12.7831C20.7744 12.3431 20.4263 11.6338 20.4288 10.8863L20.43 10.7113C20.43 10.6281 20.3906 10.5763 20.3669 10.5525C20.3444 10.5294 20.3063 10.5019 20.2525 10.5019L18.6606 10.5C18.5631 10.5 18.4838 10.5931 18.4831 10.7081L18.4825 10.8594C18.4794 11.6188 18.1238 12.3413 17.5313 12.7931L17.4506 12.8544C16.7988 13.35 15.9488 13.49 15.1788 13.2275C15.1494 13.2175 15.1219 13.2194 15.0956 13.2331C15.0756 13.2431 15.0394 13.2688 15.0219 13.3256L14.5113 14.9481C14.4744 15.0663 14.535 15.1894 14.6494 15.2288L14.7519 15.2638ZM17.3838 21.75C17.08 21.75 16.785 21.6513 16.5363 21.4619L15.2413 20.4788C14.6225 20.01 14.4856 19.1081 14.9356 18.4688C15.1694 18.1375 15.2175 17.7119 15.08 17.3081L15.0456 17.2031C14.9313 16.8394 14.67 16.5569 14.3469 16.4463H14.3463L14.2444 16.4106C13.4831 16.15 13.0769 15.3431 13.3188 14.5731L13.8288 12.9513C13.9444 12.5844 14.1938 12.2881 14.5313 12.1175C14.8613 11.9513 15.2344 11.9256 15.5831 12.045C15.9575 12.1725 16.3731 12.1031 16.6938 11.8594L16.7744 11.7981C17.0594 11.5806 17.2313 11.2275 17.2325 10.8544L17.2331 10.7038C17.2363 9.90125 17.8769 9.25 18.66 9.25H18.6625L20.2544 9.25188C20.6306 9.2525 20.9856 9.40125 21.2531 9.67063C21.53 9.94875 21.6813 10.3206 21.68 10.7175L21.6788 10.8919C21.6775 11.2456 21.8394 11.58 22.1125 11.785L22.1794 11.8356C22.4663 12.0513 22.84 12.1131 23.1756 12.0006L23.3875 11.93C23.7481 11.81 24.1319 11.8394 24.47 12.0125C24.8169 12.19 25.0731 12.4956 25.1906 12.8738L25.6825 14.4494C25.92 15.2106 25.5088 16.0319 24.7669 16.28L24.6413 16.3219C24.2813 16.4431 23.9981 16.7431 23.885 17.1256C23.7813 17.4763 23.8413 17.8619 24.0469 18.1581L24.2094 18.3925C24.6556 19.0375 24.5131 19.9425 23.8919 20.4106L22.6038 21.3831C22.2944 21.6169 21.915 21.7113 21.5344 21.6506C21.1506 21.5888 20.8156 21.3763 20.5913 21.0525L20.5175 20.945C20.2988 20.63 19.9488 20.4388 19.5819 20.4594C19.2144 20.4694 18.8969 20.6438 18.6894 20.9388L18.545 21.1438C18.3188 21.4644 17.9831 21.6738 17.6013 21.7338C17.5281 21.745 17.4556 21.75 17.3838 21.75ZM19.5001 14.5624C18.9833 14.5624 18.5626 14.9831 18.5626 15.4999C18.5626 16.0168 18.9833 16.4374 19.5001 16.4374C20.017 16.4374 20.4376 16.0168 20.4376 15.4999C20.4376 14.9831 20.017 14.5624 19.5001 14.5624ZM19.5001 17.6874C18.2939 17.6874 17.3126 16.7062 17.3126 15.4999C17.3126 14.2937 18.2939 13.3124 19.5001 13.3124C20.7064 13.3124 21.6876 14.2937 21.6876 15.4999C21.6876 16.7062 20.7064 17.6874 19.5001 17.6874Z" fill="#2A6059"/>
<path d="M14.7519 15.2638L14.7843 15.1692L14.7842 15.1691L14.7519 15.2638ZM16.2375 16.8269L16.1421 16.8569L16.1426 16.8585L16.2375 16.8269ZM16.2625 16.9019L16.1676 16.9335L16.1678 16.934L16.2625 16.9019ZM15.9744 19.1656L16.0561 19.2233L16.0561 19.2232L15.9744 19.1656ZM15.9969 19.4831L16.0574 19.4035L16.0573 19.4035L15.9969 19.4831ZM17.2919 20.4669L17.2314 20.5465L17.2317 20.5467L17.2919 20.4669ZM17.4094 20.4981L17.4207 20.5976L17.4252 20.5969L17.4094 20.4981ZM17.5231 20.4237L17.4414 20.3662L17.4413 20.3663L17.5231 20.4237ZM17.6675 20.2188L17.5858 20.1611L17.5858 20.1612L17.6675 20.2188ZM19.5244 19.21L19.5223 19.11L19.5215 19.11L19.5244 19.21ZM21.5456 20.2344L21.6279 20.1776L21.6278 20.1775L21.5456 20.2344ZM21.6194 20.3413L21.5371 20.398L21.5376 20.3987L21.6194 20.3413ZM21.7331 20.4163L21.7532 20.3182L21.7486 20.3175L21.7331 20.4163ZM21.8506 20.385L21.7904 20.3052L21.7892 20.3061L21.8506 20.385ZM23.1388 19.4131L23.0788 19.3331L23.0785 19.3333L23.1388 19.4131ZM23.1819 19.1044L23.2642 19.0476L23.2641 19.0474L23.1819 19.1044ZM23.0194 18.87L22.9372 18.9269L22.9372 18.927L23.0194 18.87ZM22.6869 16.7706L22.7827 16.7991L22.7828 16.799L22.6869 16.7706ZM24.2444 15.1369L24.2761 15.2317L24.2764 15.2316L24.2444 15.1369ZM24.37 15.0944L24.3387 14.9994L24.338 14.9996L24.37 15.0944ZM24.4894 14.8212L24.5849 14.7917L24.5848 14.7915L24.4894 14.8212ZM23.9975 13.2456L24.093 13.2158L24.0929 13.2157L23.9975 13.2456ZM23.9006 13.125L23.947 13.0364L23.9465 13.0362L23.9006 13.125ZM23.7838 13.1156L23.8153 13.2105L23.8158 13.2103L23.7838 13.1156ZM23.5713 13.1862L23.5397 13.0914L23.5397 13.0914L23.5713 13.1862ZM21.4269 12.8338L21.487 12.7538L21.4869 12.7538L21.4269 12.8338ZM21.3594 12.7831L21.2993 12.863L21.2994 12.8631L21.3594 12.7831ZM20.4288 10.8863L20.3288 10.8855L20.3288 10.8859L20.4288 10.8863ZM20.43 10.7113L20.53 10.712V10.7113H20.43ZM20.3669 10.5525L20.2952 10.6222L20.2962 10.6232L20.3669 10.5525ZM20.2525 10.5019L20.2524 10.6019H20.2525V10.5019ZM18.6606 10.5L18.6608 10.4H18.6606V10.5ZM18.4831 10.7081L18.3831 10.7076L18.3831 10.7077L18.4831 10.7081ZM18.4825 10.8594L18.3825 10.859V10.859L18.4825 10.8594ZM17.5313 12.7931L17.5918 12.8728L17.5919 12.8726L17.5313 12.7931ZM17.4506 12.8544L17.3901 12.7747L17.3901 12.7748L17.4506 12.8544ZM15.1788 13.2275L15.211 13.1328L15.211 13.1328L15.1788 13.2275ZM15.0956 13.2331L15.1404 13.3226L15.142 13.3217L15.0956 13.2331ZM15.0219 13.3256L15.1173 13.3556L15.1175 13.355L15.0219 13.3256ZM14.5113 14.9481L14.4159 14.9181L14.4158 14.9183L14.5113 14.9481ZM14.6494 15.2288L14.6168 15.3233L14.6171 15.3234L14.6494 15.2288ZM16.5363 21.4619L16.5968 21.3823L16.5967 21.3822L16.5363 21.4619ZM15.2413 20.4788L15.3017 20.3991L15.3016 20.399L15.2413 20.4788ZM14.9356 18.4688L14.8539 18.4111L14.8539 18.4112L14.9356 18.4688ZM15.08 17.3081L14.985 17.3392L14.9853 17.3404L15.08 17.3081ZM15.0456 17.2031L14.9502 17.2331L14.9506 17.2342L15.0456 17.2031ZM14.3469 16.4463L14.3793 16.3516L14.3635 16.3463H14.3469V16.4463ZM14.3463 16.4463L14.3132 16.5406L14.3293 16.5463H14.3463V16.4463ZM14.2444 16.4106L14.2774 16.3162L14.2768 16.316L14.2444 16.4106ZM13.3188 14.5731L13.2234 14.5431L13.2234 14.5432L13.3188 14.5731ZM13.8288 12.9513L13.7334 12.9212L13.7334 12.9213L13.8288 12.9513ZM14.5313 12.1175L14.4863 12.0282L14.4861 12.0283L14.5313 12.1175ZM15.5831 12.045L15.5507 12.1396L15.5509 12.1397L15.5831 12.045ZM16.6938 11.8594L16.6333 11.7797L16.6332 11.7798L16.6938 11.8594ZM16.7744 11.7981L16.8349 11.8778L16.8351 11.8776L16.7744 11.7981ZM17.2325 10.8544L17.1325 10.854L17.1325 10.854L17.2325 10.8544ZM17.2331 10.7038L17.3331 10.7042V10.7041L17.2331 10.7038ZM18.6625 9.25L18.6626 9.15H18.6625V9.25ZM20.2544 9.25188L20.2546 9.15188L20.2545 9.15188L20.2544 9.25188ZM21.2531 9.67063L21.1822 9.74109L21.1823 9.74118L21.2531 9.67063ZM21.68 10.7175L21.78 10.7182L21.78 10.7178L21.68 10.7175ZM21.6788 10.8919L21.5788 10.8912L21.5788 10.8915L21.6788 10.8919ZM22.1125 11.785L22.1729 11.7053L22.1725 11.705L22.1125 11.785ZM22.1794 11.8356L22.119 11.9154L22.1193 11.9156L22.1794 11.8356ZM23.1756 12.0006L23.144 11.9058L23.1439 11.9058L23.1756 12.0006ZM23.3875 11.93L23.3559 11.8351L23.3559 11.8351L23.3875 11.93ZM24.47 12.0125L24.4244 12.1015L24.4245 12.1015L24.47 12.0125ZM25.1906 12.8738L25.0951 12.9034L25.0952 12.9035L25.1906 12.8738ZM25.6825 14.4494L25.778 14.4196L25.778 14.4196L25.6825 14.4494ZM24.7669 16.28L24.7985 16.3749L24.7986 16.3748L24.7669 16.28ZM24.6413 16.3219L24.6096 16.227L24.6093 16.2271L24.6413 16.3219ZM23.885 17.1256L23.9809 17.154L23.9809 17.154L23.885 17.1256ZM24.0469 18.1581L24.1291 18.1011L24.129 18.1011L24.0469 18.1581ZM24.2094 18.3925L24.2916 18.3356L24.2916 18.3355L24.2094 18.3925ZM23.8919 20.4106L23.8317 20.3308L23.8316 20.3308L23.8919 20.4106ZM22.6038 21.3831L22.5435 21.3033L22.5435 21.3033L22.6038 21.3831ZM21.5344 21.6506L21.5185 21.7494L21.5187 21.7494L21.5344 21.6506ZM20.5913 21.0525L20.5088 21.1091L20.5091 21.1095L20.5913 21.0525ZM20.5175 20.945L20.6 20.8884L20.5996 20.888L20.5175 20.945ZM19.5819 20.4594L19.5846 20.5594L19.5875 20.5592L19.5819 20.4594ZM18.6894 20.9388L18.7711 20.9963L18.7712 20.9963L18.6894 20.9388ZM18.545 21.1438L18.6267 21.2014L18.6268 21.2013L18.545 21.1438ZM17.6013 21.7338L17.6165 21.8326L17.6168 21.8325L17.6013 21.7338ZM14.7194 15.3583C15.3852 15.5868 15.9186 16.1454 16.1421 16.8568L16.3329 16.7969C16.0914 16.0283 15.5136 15.4194 14.7843 15.1692L14.7194 15.3583ZM16.1426 16.8585L16.1676 16.9335L16.3574 16.8703L16.3324 16.7953L16.1426 16.8585ZM16.1678 16.934C16.4246 17.6911 16.3191 18.5024 15.8926 19.1081L16.0561 19.2232C16.5222 18.5614 16.6329 17.6826 16.3572 16.8698L16.1678 16.934ZM15.8927 19.1079C15.7874 19.2569 15.7987 19.4582 15.9364 19.5628L16.0573 19.4035C16.0238 19.378 15.9988 19.3043 16.0561 19.2233L15.8927 19.1079ZM15.9364 19.5628L17.2314 20.5465L17.3524 20.3872L16.0574 19.4035L15.9364 19.5628ZM17.2317 20.5467C17.3056 20.6024 17.3795 20.6022 17.4207 20.5975L17.3981 20.3988C17.3904 20.3996 17.3833 20.3997 17.3764 20.3984C17.37 20.3971 17.3618 20.3944 17.3521 20.387L17.2317 20.5467ZM17.4252 20.5969C17.4774 20.5885 17.5495 20.5602 17.605 20.4812L17.4413 20.3663C17.4314 20.3803 17.4218 20.3877 17.4145 20.392C17.4068 20.3964 17.3994 20.3984 17.3936 20.3994L17.4252 20.5969ZM17.6049 20.4813L17.7493 20.2763L17.5858 20.1612L17.4414 20.3662L17.6049 20.4813ZM17.7492 20.2764C18.1621 19.6909 18.827 19.3303 19.5273 19.31L19.5215 19.11C18.7568 19.1322 18.0341 19.5254 17.5858 20.1611L17.7492 20.2764ZM19.5264 19.31C20.3158 19.2938 21.0227 19.6548 21.4634 20.2913L21.6278 20.1775C21.1485 19.4852 20.378 19.0925 19.5223 19.11L19.5264 19.31ZM21.4633 20.2912L21.5371 20.398L21.7017 20.2845L21.6279 20.1776L21.4633 20.2912ZM21.5376 20.3987C21.5924 20.4768 21.6633 20.5065 21.7176 20.515L21.7486 20.3175C21.7432 20.3166 21.7361 20.3146 21.7285 20.3102C21.7211 20.3059 21.7114 20.2983 21.7012 20.2838L21.5376 20.3987ZM21.7131 20.5142C21.765 20.5248 21.8408 20.5194 21.912 20.4639L21.7892 20.3061C21.7705 20.3206 21.7563 20.3189 21.7532 20.3183L21.7131 20.5142ZM21.9109 20.4648L23.199 19.493L23.0785 19.3333L21.7904 20.3052L21.9109 20.4648ZM23.1988 19.4931C23.3351 19.3909 23.3591 19.1851 23.2642 19.0476L23.0996 19.1612C23.1384 19.2174 23.1224 19.3004 23.0788 19.3331L23.1988 19.4931ZM23.2641 19.0474L23.1016 18.813L22.9372 18.927L23.0997 19.1614L23.2641 19.0474ZM23.1016 18.8131C22.7002 18.2332 22.5807 17.4796 22.7827 16.7991L22.591 16.7422C22.3718 17.4804 22.501 18.2968 22.9372 18.9269L23.1016 18.8131ZM22.7828 16.799C23.0025 16.0569 23.5611 15.471 24.2761 15.2317L24.2126 15.042C23.4339 15.3027 22.8287 15.9394 22.591 16.7422L22.7828 16.799ZM24.2764 15.2316L24.4021 15.1891L24.338 14.9996L24.2123 15.0421L24.2764 15.2316ZM24.4013 15.1894C24.5648 15.1355 24.633 14.9468 24.5849 14.7917L24.3939 14.8508C24.417 14.9257 24.3765 14.987 24.3387 14.9994L24.4013 15.1894ZM24.5848 14.7915L24.093 13.2158L23.9021 13.2754L24.3939 14.851L24.5848 14.7915ZM24.0929 13.2157C24.0596 13.1093 23.9888 13.0583 23.947 13.0364L23.8542 13.2136C23.8649 13.2192 23.8892 13.2345 23.9021 13.2755L24.0929 13.2157ZM23.9465 13.0362C23.8854 13.0046 23.8167 12.9989 23.7517 13.0209L23.8158 13.2103C23.8283 13.2061 23.8408 13.2067 23.8547 13.2138L23.9465 13.0362ZM23.7522 13.0207L23.5397 13.0914L23.6028 13.2811L23.8153 13.2105L23.7522 13.0207ZM23.5397 13.0914C22.8441 13.3228 22.0765 13.1973 21.487 12.7538L21.3668 12.9137C22.0085 13.3965 22.8447 13.5334 23.6028 13.2811L23.5397 13.0914ZM21.4869 12.7538L21.4194 12.7031L21.2994 12.8631L21.3669 12.9138L21.4869 12.7538ZM21.4195 12.7032C20.8603 12.2826 20.5264 11.6033 20.5288 10.8866L20.3288 10.8859C20.3262 11.6642 20.6885 12.4036 21.2993 12.863L21.4195 12.7032ZM20.5288 10.887L20.53 10.712L20.33 10.7105L20.3288 10.8855L20.5288 10.887ZM20.53 10.7113C20.53 10.5936 20.4735 10.5177 20.4376 10.4818L20.2962 10.6232C20.3078 10.6348 20.33 10.6627 20.33 10.7113H20.53ZM20.4386 10.4828C20.4053 10.4486 20.343 10.4019 20.2525 10.4019V10.6019C20.2695 10.6019 20.2834 10.6101 20.2952 10.6222L20.4386 10.4828ZM20.2526 10.4019L18.6608 10.4L18.6605 10.6L20.2524 10.6019L20.2526 10.4019ZM18.6606 10.4C18.4933 10.4 18.384 10.5536 18.3831 10.7076L18.5831 10.7087C18.5835 10.6326 18.6329 10.6 18.6606 10.6V10.4ZM18.3831 10.7077L18.3825 10.859L18.5825 10.8598L18.5831 10.7085L18.3831 10.7077ZM18.3825 10.859C18.3795 11.588 18.0379 12.281 17.4706 12.7136L17.5919 12.8726C18.2096 12.4015 18.5793 11.6495 18.5825 10.8598L18.3825 10.859ZM17.4708 12.7135L17.3901 12.7747L17.5111 12.934L17.5918 12.8728L17.4708 12.7135ZM17.3901 12.7748C16.7645 13.2504 15.9492 13.3845 15.211 13.1328L15.1465 13.3222C15.9483 13.5955 16.833 13.4496 17.5112 12.934L17.3901 12.7748ZM15.211 13.1328C15.157 13.1145 15.101 13.1174 15.0492 13.1445L15.142 13.3217C15.1438 13.3208 15.1438 13.3211 15.1428 13.3212C15.1419 13.3212 15.1429 13.3209 15.1465 13.3222L15.211 13.1328ZM15.0509 13.1437C15.0129 13.1627 14.9537 13.2071 14.9263 13.2962L15.1175 13.355C15.1216 13.3417 15.1271 13.3342 15.131 13.3299C15.1353 13.3254 15.1391 13.3232 15.1404 13.3226L15.0509 13.1437ZM14.9265 13.2956L14.4159 14.9181L14.6066 14.9781L15.1173 13.3556L14.9265 13.2956ZM14.4158 14.9183C14.3634 15.0862 14.4494 15.2657 14.6168 15.3233L14.6819 15.1342C14.6206 15.1131 14.5854 15.0464 14.6067 14.9779L14.4158 14.9183ZM14.6171 15.3234L14.7196 15.3584L14.7842 15.1691L14.6817 15.1341L14.6171 15.3234ZM17.3838 21.65C17.1021 21.65 16.8283 21.5585 16.5968 21.3823L16.4757 21.5414C16.7417 21.744 17.058 21.85 17.3838 21.85V21.65ZM16.5967 21.3822L15.3017 20.3991L15.1808 20.5584L16.4758 21.5415L16.5967 21.3822ZM15.3016 20.399C14.7264 19.9632 14.598 19.1222 15.0174 18.5263L14.8539 18.4112C14.3733 19.094 14.5186 20.0568 15.1809 20.5585L15.3016 20.399ZM15.0173 18.5264C15.2714 18.1663 15.3214 17.7067 15.1747 17.2759L14.9853 17.3404C15.1136 17.717 15.0673 18.1087 14.8539 18.4111L15.0173 18.5264ZM15.175 17.277L15.1407 17.172L14.9506 17.2342L14.985 17.3392L15.175 17.277ZM15.141 17.1731C15.0184 16.783 14.7362 16.4738 14.3793 16.3516L14.3145 16.5409C14.6038 16.6399 14.8442 16.8957 14.9502 17.2331L15.141 17.1731ZM14.3469 16.3463H14.3463V16.5463H14.3469V16.3463ZM14.3793 16.3519L14.2774 16.3162L14.2114 16.505L14.3132 16.5406L14.3793 16.3519ZM14.2768 16.316C13.5671 16.0731 13.1884 15.3217 13.4142 14.6031L13.2234 14.5432C12.9653 15.3646 13.3991 16.2269 14.212 16.5052L14.2768 16.316ZM13.4142 14.6031L13.9242 12.9812L13.7334 12.9213L13.2234 14.5431L13.4142 14.6031ZM13.9241 12.9813C14.0318 12.6396 14.2634 12.365 14.5764 12.2067L14.4861 12.0283C14.1241 12.2113 13.8569 12.5292 13.7334 12.9212L13.9241 12.9813ZM14.5763 12.2068C14.8823 12.0526 15.2275 12.029 15.5507 12.1396L15.6155 11.9504C15.2413 11.8223 14.8403 11.8499 14.4863 12.0282L14.5763 12.2068ZM15.5509 12.1397C15.9574 12.2781 16.4077 12.2024 16.7543 11.939L16.6332 11.7798C16.3385 12.0038 15.9576 12.0669 15.6154 11.9503L15.5509 12.1397ZM16.7543 11.939L16.8349 11.8778L16.7139 11.7185L16.6333 11.7797L16.7543 11.939ZM16.8351 11.8776C17.1458 11.6405 17.3312 11.2576 17.3325 10.8547L17.1325 10.854C17.1314 11.1974 16.973 11.5208 16.7137 11.7186L16.8351 11.8776ZM17.3325 10.8548L17.3331 10.7042L17.1331 10.7033L17.1325 10.854L17.3325 10.8548ZM17.3331 10.7041C17.3361 9.95465 17.934 9.35 18.66 9.35V9.15C17.8198 9.15 17.1365 9.84785 17.1331 10.7034L17.3331 10.7041ZM18.66 9.35H18.6625V9.15H18.66V9.35ZM18.6624 9.35L20.2543 9.35187L20.2545 9.15188L18.6626 9.15L18.6624 9.35ZM20.2542 9.35187C20.6036 9.35246 20.9332 9.49041 21.1822 9.74109L21.3241 9.60016C21.038 9.31209 20.6576 9.15254 20.2546 9.15188L20.2542 9.35187ZM21.1823 9.74118C21.4401 10.0002 21.5812 10.3464 21.58 10.7172L21.78 10.7178C21.7813 10.2948 21.6199 9.89733 21.324 9.60007L21.1823 9.74118ZM21.58 10.7168L21.5788 10.8912L21.7788 10.8926L21.78 10.7182L21.58 10.7168ZM21.5788 10.8915C21.5774 11.2754 21.7529 11.6401 22.0525 11.865L22.1725 11.705C21.9258 11.5199 21.7776 11.2159 21.7788 10.8922L21.5788 10.8915ZM22.0522 11.8647L22.119 11.9154L22.2397 11.7559L22.1729 11.7053L22.0522 11.8647ZM22.1193 11.9156C22.4321 12.1506 22.8401 12.2186 23.2074 12.0954L23.1439 11.9058C22.8399 12.0077 22.5005 11.9519 22.2395 11.7557L22.1193 11.9156ZM23.2073 12.0955L23.4191 12.0249L23.3559 11.8351L23.144 11.9058L23.2073 12.0955ZM23.4191 12.0249C23.7542 11.9134 24.1102 11.9406 24.4244 12.1015L24.5156 11.9235C24.1536 11.7381 23.742 11.7066 23.3559 11.8351L23.4191 12.0249ZM24.4245 12.1015C24.7471 12.2666 24.9855 12.5506 25.0951 12.9034L25.2861 12.8441C25.1608 12.4406 24.8867 12.1134 24.5156 11.9235L24.4245 12.1015ZM25.0952 12.9035L25.5871 14.4792L25.778 14.4196L25.2861 12.844L25.0952 12.9035ZM25.587 14.4792C25.8088 15.19 25.4239 15.9548 24.7352 16.1852L24.7986 16.3748C25.5937 16.1089 26.0312 15.2312 25.778 14.4196L25.587 14.4792ZM24.7353 16.1851L24.6096 16.227L24.6729 16.4167L24.7985 16.3749L24.7353 16.1851ZM24.6093 16.2271C24.2169 16.3593 23.911 16.6852 23.7891 17.0973L23.9809 17.154C24.0853 16.8011 24.3456 16.527 24.6732 16.4166L24.6093 16.2271ZM23.7891 17.0973C23.6769 17.4763 23.7415 17.8935 23.9647 18.2151L24.129 18.1011C23.9411 17.8303 23.8856 17.4762 23.9809 17.154L23.7891 17.0973ZM23.9647 18.2151L24.1272 18.4495L24.2916 18.3355L24.1291 18.1011L23.9647 18.2151ZM24.1271 18.4494C24.5433 19.0509 24.4095 19.8953 23.8317 20.3308L23.9521 20.4905C24.6167 19.9897 24.768 19.0241 24.2916 18.3356L24.1271 18.4494ZM23.8316 20.3308L22.5435 21.3033L22.664 21.4629L23.9521 20.4904L23.8316 20.3308ZM22.5435 21.3033C22.2558 21.5207 21.9038 21.6082 21.5501 21.5519L21.5187 21.7494C21.9262 21.8143 22.333 21.713 22.664 21.4629L22.5435 21.3033ZM21.5503 21.5519C21.1938 21.4944 20.8826 21.2973 20.6735 20.9955L20.5091 21.1095C20.7487 21.4552 21.1075 21.6831 21.5185 21.7494L21.5503 21.5519ZM20.6737 20.9959L20.6 20.8884L20.435 21.0016L20.5088 21.1091L20.6737 20.9959ZM20.5996 20.888C20.3638 20.5484 19.9824 20.3367 19.5763 20.3595L19.5875 20.5592C19.9151 20.5408 20.2337 20.7116 20.4354 21.002L20.5996 20.888ZM19.5792 20.3594C19.1797 20.3703 18.833 20.5607 18.6076 20.8812L18.7712 20.9963C18.9607 20.7268 19.2491 20.5685 19.5846 20.5593L19.5792 20.3594ZM18.6076 20.8812L18.4633 21.0862L18.6268 21.2013L18.7711 20.9963L18.6076 20.8812ZM18.4633 21.0861C18.2524 21.3849 17.9406 21.5792 17.5857 21.635L17.6168 21.8325C18.0257 21.7683 18.3851 21.5438 18.6267 21.2014L18.4633 21.0861ZM17.5861 21.6349C17.5184 21.6453 17.451 21.65 17.3838 21.65V21.85C17.4603 21.85 17.5379 21.8447 17.6165 21.8326L17.5861 21.6349ZM19.5001 14.4624C18.928 14.4624 18.4626 14.9278 18.4626 15.4999H18.6626C18.6626 15.0383 19.0385 14.6624 19.5001 14.6624V14.4624ZM18.4626 15.4999C18.4626 16.072 18.928 16.5374 19.5001 16.5374V16.3374C19.0385 16.3374 18.6626 15.9616 18.6626 15.4999H18.4626ZM19.5001 16.5374C20.0722 16.5374 20.5376 16.072 20.5376 15.4999H20.3376C20.3376 15.9616 19.9618 16.3374 19.5001 16.3374V16.5374ZM20.5376 15.4999C20.5376 14.9278 20.0722 14.4624 19.5001 14.4624V14.6624C19.9618 14.6624 20.3376 15.0383 20.3376 15.4999H20.5376ZM19.5001 17.5874C18.3491 17.5874 17.4126 16.651 17.4126 15.4999H17.2126C17.2126 16.7614 18.2387 17.7874 19.5001 17.7874V17.5874ZM17.4126 15.4999C17.4126 14.3489 18.3491 13.4124 19.5001 13.4124V13.2124C18.2387 13.2124 17.2126 14.2385 17.2126 15.4999H17.4126ZM19.5001 13.4124C20.6512 13.4124 21.5876 14.3489 21.5876 15.4999H21.7876C21.7876 14.2385 20.7616 13.2124 19.5001 13.2124V13.4124ZM21.5876 15.4999C21.5876 16.651 20.6512 17.5874 19.5001 17.5874V17.7874C20.7616 17.7874 21.7876 16.7614 21.7876 15.4999H21.5876Z" fill="#2A6059"/>
<path d="M22.4042 9.23237V2.64647C22.4042 2.2098 22.2307 1.79101 21.9219 1.48224C21.6131 1.17347 21.1944 1 20.7577 1H2.64647C2.2098 1 1.79101 1.17347 1.48224 1.48224C1.17347 1.79101 1 2.2098 1 2.64647V15.8183C1 16.2549 1.17347 16.6737 1.48224 16.9825C1.79101 17.2913 2.2098 17.4647 2.64647 17.4647H12.5253" stroke="#2A6059" stroke-width="1.6" stroke-linecap="round" stroke-linejoin="round"/>
<path d="M1 5.93945H22.4042" stroke="#2A6059" stroke-width="1.6" stroke-linecap="round" stroke-linejoin="round"/>
<path d="M4.29297 10.0522H10.8789" stroke="#2A6059" stroke-width="1.6" stroke-linecap="round" stroke-linejoin="round"/>
<path d="M4.29297 13.3452H7.58592" stroke="#2A6059" stroke-width="1.6" stroke-linecap="round" stroke-linejoin="round"/>
</svg>
