<svg width="18" height="19" viewBox="0 0 18 19" fill="none" xmlns="http://www.w3.org/2000/svg">
<path fill-rule="evenodd" clip-rule="evenodd" d="M13.0625 15.0417C12.6619 15.0417 12.3368 14.687 12.3368 14.25C12.3368 13.813 12.6619 13.4583 13.0625 13.4583C13.4631 13.4583 13.7882 13.813 13.7882 14.25C13.7882 14.687 13.4631 15.0417 13.0625 15.0417ZM3.6285 10.2917C3.22792 10.2917 2.90281 9.937 2.90281 9.5C2.90281 9.063 3.22792 8.70833 3.6285 8.70833C4.02908 8.70833 4.35419 9.063 4.35419 9.5C4.35419 9.937 4.02908 10.2917 3.6285 10.2917ZM13.0625 3.95833C13.4631 3.95833 13.7882 4.313 13.7882 4.75C13.7882 5.187 13.4631 5.54167 13.0625 5.54167C12.6619 5.54167 12.3368 5.187 12.3368 4.75C12.3368 4.313 12.6619 3.95833 13.0625 3.95833ZM13.0625 11.875C12.4696 11.875 11.9326 12.1363 11.5393 12.5566L5.78091 9.76521C5.79034 9.67733 5.80558 9.59025 5.80558 9.5C5.80558 9.40975 5.79034 9.32267 5.78091 9.23479L11.5393 6.44338C11.9326 6.86375 12.4696 7.125 13.0625 7.125C14.2628 7.125 15.2396 6.05942 15.2396 4.75C15.2396 3.44058 14.2628 2.375 13.0625 2.375C11.8622 2.375 10.8854 3.44058 10.8854 4.75C10.8854 4.84025 10.9007 4.92733 10.9101 5.01521L5.15173 7.80663C4.75841 7.38625 4.22139 7.125 3.6285 7.125C2.4282 7.125 1.45142 8.19058 1.45142 9.5C1.45142 10.8094 2.4282 11.875 3.6285 11.875C4.22139 11.875 4.75841 11.6138 5.15173 11.1934L10.9101 13.9848C10.9007 14.0727 10.8854 14.1597 10.8854 14.25C10.8854 15.5594 11.8622 16.625 13.0625 16.625C14.2628 16.625 15.2396 15.5594 15.2396 14.25C15.2396 12.9406 14.2628 11.875 13.0625 11.875Z" fill="white"/>
</svg>
