<svg width="24" height="24" viewBox="0 0 24 24" fill="none" xmlns="http://www.w3.org/2000/svg">
<path d="M17.1804 13.9872C17.1111 13.8734 16.9272 13.8033 16.6509 13.6672C16.3747 13.5311 15.0139 12.8656 14.7615 12.7748C14.5092 12.6841 14.3228 12.6371 14.1389 12.9117C13.955 13.1864 13.4247 13.8033 13.263 13.9839C13.1014 14.1645 12.9406 14.19 12.6643 14.0531C11.8489 13.7315 11.0955 13.2708 10.4376 12.6915C9.83368 12.1392 9.31556 11.4999 8.90033 10.7947C8.73539 10.5209 8.88301 10.3725 9.02156 10.2356C9.31148 9.97129 9.54635 9.65235 9.71267 9.29705C9.74961 9.22145 9.76686 9.13774 9.76282 9.05369C9.75878 8.96964 9.73359 8.88797 9.68958 8.81625C9.62277 8.68017 9.0694 7.3293 8.8393 6.78334C8.57869 6.15986 7.41668 6.13842 6.94907 6.64479C5.47367 8.24555 5.81427 10.0591 7.11401 11.7703C7.25256 11.9534 9.02734 14.8143 11.8379 15.9129C14.6485 17.0114 14.6485 16.6444 15.1557 16.5982C16.613 16.4671 17.5993 14.6824 17.1837 13.9896M11.4841 2.00004C8.97956 1.9928 6.5744 2.9794 4.79636 4.74336C3.01833 6.50732 2.01266 8.90457 2 11.4091C1.99867 13.3941 2.63178 15.3275 3.80694 16.9272L2.62266 20.4224L6.26704 19.2636C7.69282 20.1993 9.3443 20.7336 11.0479 20.8104C12.7516 20.8872 14.4444 20.5036 15.9486 19.7001C17.4528 18.8965 18.7127 17.7026 19.596 16.2438C20.4793 14.785 20.9533 13.1152 20.9683 11.41C20.9556 8.90532 19.95 6.50798 18.172 4.74389C16.394 2.9798 13.9888 1.99302 11.4841 2.00004V2.00004Z" stroke="#2A6059" stroke-width="1.7" stroke-linecap="round" stroke-linejoin="round"/>
</svg>
